<svg width="403" height="560" xmlns="http://www.w3.org/2000/svg" xmlns:xlink="http://www.w3.org/1999/xlink" xml:space="preserve" overflow="hidden"><g transform="translate(-692 -80)"><path d="M823.234 97.7902 823.234 131.717" stroke="#000000" stroke-width="0.997859" stroke-dasharray="7.98287 7.98287" fill="none" transform="matrix(1 0 0 1.00215 185.95 80)"/><path d="M823.234 166.643 823.234 131.717" stroke="#000000" stroke-width="0.997859" fill="none" transform="matrix(1 0 0 1.00215 185.95 80)"/><path d="M817.247 166.643 823.234 154.668 829.221 166.643" stroke="#000000" stroke-width="0.997859" fill="#FFFFFF" transform="matrix(1 0 0 1.00215 185.95 80)"/><path d="M736.42 223.52 683.534 223.52" stroke="#000000" stroke-width="0.997859" stroke-dasharray="7.98287 7.98287" fill="none" transform="matrix(1 0 0 1.00215 185.95 80)"/><path d="M630.647 223.52 683.534 223.52" stroke="#000000" stroke-width="0.997859" fill="none" transform="matrix(1 0 0 1.00215 185.95 80)"/><path d="M630.647 217.533 642.621 223.52 630.647 229.508" stroke="#000000" stroke-width="0.997859" fill="#FFFFFF" transform="matrix(1 0 0 1.00215 185.95 80)"/><path d="M817.247 408.124 817.247 431.075" stroke="#000000" stroke-width="0.997859" stroke-dasharray="7.98287 7.98287" fill="none" transform="matrix(1 0 0 1.00215 185.95 80)"/><path d="M817.247 454.026 817.247 431.075" stroke="#000000" stroke-width="0.997859" fill="none" transform="matrix(1 0 0 1.00215 185.95 80)"/><path d="M811.26 454.026 817.247 442.052 823.234 454.026" stroke="#000000" stroke-width="0.997859" fill="#FFFFFF" transform="matrix(1 0 0 1.00215 185.95 80)"/><path d="M571.773 300.356 571.773 380.184" stroke="#000000" stroke-width="0.997859" stroke-dasharray="7.98287 7.98287" fill="none" transform="matrix(1 0 0 1.00215 185.95 80)"/><path d="M565.786 380.184 571.773 368.21 577.761 380.184" stroke="#000000" stroke-width="0.997859" fill="#FFFFFF" transform="matrix(1 0 0 1.00215 185.95 80)"/><path d="M740.412 49.893 701.495 49.893" stroke="#000000" stroke-width="0.997859" stroke-dasharray="7.98287 7.98287" fill="none" transform="matrix(1 0 0 1.00215 185.95 80)"/><path d="M663.576 49.893 701.495 49.893" stroke="#000000" stroke-width="0.997859" fill="none" transform="matrix(1 0 0 1.00215 185.95 80)"/><path d="M663.576 43.9058 675.551 49.893 663.576 55.8801" stroke="#000000" stroke-width="0.997859" fill="#FFFFFF" transform="matrix(1 0 0 1.00215 185.95 80)"/><path d="M630.647 272.416 728.437 320.313" stroke="#000000" stroke-width="0.997859" stroke-dasharray="7.98287 7.98287" fill="none" transform="matrix(1 0 0 1.00215 185.95 80)"/><path d="M821.238 258.446 821.238 288.381" stroke="#000000" stroke-width="0.997859" stroke-dasharray="7.98287 7.98287" fill="none" transform="matrix(1 0 0 1.00215 185.95 80)"/><path d="M821.238 319.315 821.238 288.381" stroke="#000000" stroke-width="0.997859" fill="none" transform="matrix(1 0 0 1.00215 185.95 80)"/><path d="M815.251 319.315 821.238 307.341 827.225 319.315" stroke="#000000" stroke-width="0.997859" fill="#FFFFFF" transform="matrix(1 0 0 1.00215 185.95 80)"/><path d="M780.326 258.446 726.442 319.315" stroke="#000000" stroke-width="0.997859" stroke-dasharray="7.98287 7.98287" fill="none" transform="matrix(1 0 0 1.00215 185.95 80)"/><path d="M672.557 380.184 726.442 319.315" stroke="#000000" stroke-width="0.997859" fill="none" transform="matrix(1 0 0 1.00215 185.95 80)"/><path d="M668.566 376.193 680.54 372.202 676.549 384.176" stroke="#000000" stroke-width="0.997859" fill="#FFFFFF" transform="matrix(1 0 0 1.00215 185.95 80)"/><path d="M571.773 96.7924 571.773 142.694" stroke="#000000" stroke-width="0.997859" stroke-dasharray="7.98287 7.98287" fill="none" transform="matrix(1 0 0 1.00215 185.95 80)"/><path d="M571.773 189.593 571.773 142.694" stroke="#000000" stroke-width="0.997859" fill="none" transform="matrix(1 0 0 1.00215 185.95 80)"/><path d="M565.786 189.593 571.773 177.619 577.761 189.593" stroke="#000000" stroke-width="0.997859" fill="#FFFFFF" transform="matrix(1 0 0 1.00215 185.95 80)"/><g><path d="M149.679 0C160.701-7.09022e-15 169.636 8.93514 169.636 19.9572L169.636 157.662C169.636 168.684 160.701 177.619 149.679 177.619L19.9572 177.619C8.93514 177.619 0 168.684 0 157.662L0 19.9572C-3.54511e-15 8.93514 8.93514-3.54511e-15 19.9572-7.09022e-15Z" stroke="#0000FF" stroke-width="0.997859" fill="#A4E1FF" transform="matrix(1 0 0 1.00215 694.858 461)"/><text fill="#0000FF" font-family="Arial,Arial_MSFontService,sans-serif" font-weight="700" font-size="10" transform="matrix(0.997859 0 0 1 747.745 475)">End</text><text fill="#0000FF" font-family="Arial,Arial_MSFontService,sans-serif" font-weight="700" font-size="10" transform="matrix(0.997859 0 0 1 766.591 475)">_</text><text fill="#0000FF" font-family="Arial,Arial_MSFontService,sans-serif" font-weight="700" font-size="10" transform="matrix(0.997859 0 0 1 772.141 475)">devices</text><text fill="#FF0000" font-family="Arial,Arial_MSFontService,sans-serif" font-weight="400" font-size="10" transform="matrix(0.997859 0 0 1 710.824 493)">*</text><text fill="#0000FF" font-family="Arial,Arial_MSFontService,sans-serif" font-weight="400" font-size="10" transform="matrix(0.997859 0 0 1 696.854 493)">P</text><text font-family="Arial,Arial_MSFontService,sans-serif" font-weight="400" font-size="10" transform="matrix(0.997859 0 0 1 720.803 493)">id</text><text font-family="Arial,Arial_MSFontService,sans-serif" font-weight="400" font-size="10" transform="matrix(0.997859 0 0 1 728.569 493)">_</text><text font-family="Arial,Arial_MSFontService,sans-serif" font-weight="400" font-size="10" transform="matrix(0.997859 0 0 1 734.119 493)">end</text><text font-family="Arial,Arial_MSFontService,sans-serif" font-weight="400" font-size="10" transform="matrix(0.997859 0 0 1 750.768 493)">_</text><text font-family="Arial,Arial_MSFontService,sans-serif" font-weight="400" font-size="10" transform="matrix(0.997859 0 0 1 756.317 493)">device</text><text fill="#FF0000" font-family="Arial,Arial_MSFontService,sans-serif" font-weight="400" font-size="10" transform="matrix(0.997859 0 0 1 710.824 507)">*</text><text font-family="Arial,Arial_MSFontService,sans-serif" font-weight="400" font-size="10" transform="matrix(0.997859 0 0 1 720.803 507)">end</text><text font-family="Arial,Arial_MSFontService,sans-serif" font-weight="400" font-size="10" transform="matrix(0.997859 0 0 1 737.452 507)">_</text><text font-family="Arial,Arial_MSFontService,sans-serif" font-weight="400" font-size="10" transform="matrix(0.997859 0 0 1 743.001 507)">device</text><text font-family="Arial,Arial_MSFontService,sans-serif" font-weight="400" font-size="10" transform="matrix(0.997859 0 0 1 771.846 507)">_</text><text font-family="Arial,Arial_MSFontService,sans-serif" font-weight="400" font-size="10" transform="matrix(0.997859 0 0 1 777.395 507)">name</text><text fill="#FF0000" font-family="Arial,Arial_MSFontService,sans-serif" font-weight="400" font-size="10" transform="matrix(0.997859 0 0 1 710.824 521)">o</text><text font-family="Arial,Arial_MSFontService,sans-serif" font-weight="400" font-size="10" transform="matrix(0.997859 0 0 1 720.803 521)">up</text><text font-family="Arial,Arial_MSFontService,sans-serif" font-weight="400" font-size="10" transform="matrix(0.997859 0 0 1 731.902 521)">_</text><text font-family="Arial,Arial_MSFontService,sans-serif" font-weight="400" font-size="10" transform="matrix(0.997859 0 0 1 737.452 521)">temp</text><text fill="#FF0000" font-family="Arial,Arial_MSFontService,sans-serif" font-weight="400" font-size="10" transform="matrix(0.997859 0 0 1 710.824 535)">o</text><text font-family="Arial,Arial_MSFontService,sans-serif" font-weight="400" font-size="10" transform="matrix(0.997859 0 0 1 720.803 535)">down</text><text font-family="Arial,Arial_MSFontService,sans-serif" font-weight="400" font-size="10" transform="matrix(0.997859 0 0 1 744.658 535)">_</text><text font-family="Arial,Arial_MSFontService,sans-serif" font-weight="400" font-size="10" transform="matrix(0.997859 0 0 1 750.207 535)">temp</text><text fill="#FF0000" font-family="Arial,Arial_MSFontService,sans-serif" font-weight="400" font-size="10" transform="matrix(0.997859 0 0 1 710.824 549)">o</text><text font-family="Arial,Arial_MSFontService,sans-serif" font-weight="400" font-size="10" transform="matrix(0.997859 0 0 1 720.803 549)">up</text><text font-family="Arial,Arial_MSFontService,sans-serif" font-weight="400" font-size="10" transform="matrix(0.997859 0 0 1 731.902 549)">_</text><text font-family="Arial,Arial_MSFontService,sans-serif" font-weight="400" font-size="10" transform="matrix(0.997859 0 0 1 737.452 549)">hum</text><text fill="#FF0000" font-family="Arial,Arial_MSFontService,sans-serif" font-weight="400" font-size="10" transform="matrix(0.997859 0 0 1 710.824 563)">o</text><text font-family="Arial,Arial_MSFontService,sans-serif" font-weight="400" font-size="10" transform="matrix(0.997859 0 0 1 720.803 563)">down</text><text font-family="Arial,Arial_MSFontService,sans-serif" font-weight="400" font-size="10" transform="matrix(0.997859 0 0 1 744.658 563)">_</text><text font-family="Arial,Arial_MSFontService,sans-serif" font-weight="400" font-size="10" transform="matrix(0.997859 0 0 1 750.207 563)">hum</text><text fill="#FF0000" font-family="Arial,Arial_MSFontService,sans-serif" font-weight="400" font-size="10" transform="matrix(0.997859 0 0 1 710.824 577)">o</text><text font-family="Arial,Arial_MSFontService,sans-serif" font-weight="400" font-size="10" transform="matrix(0.997859 0 0 1 720.803 577)">up</text><text font-family="Arial,Arial_MSFontService,sans-serif" font-weight="400" font-size="10" transform="matrix(0.997859 0 0 1 731.902 577)">_</text><text font-family="Arial,Arial_MSFontService,sans-serif" font-weight="400" font-size="10" transform="matrix(0.997859 0 0 1 737.452 577)">light</text><text fill="#FF0000" font-family="Arial,Arial_MSFontService,sans-serif" font-weight="400" font-size="10" transform="matrix(0.997859 0 0 1 710.824 591)">o</text><text font-family="Arial,Arial_MSFontService,sans-serif" font-weight="400" font-size="10" transform="matrix(0.997859 0 0 1 720.803 591)">down</text><text font-family="Arial,Arial_MSFontService,sans-serif" font-weight="400" font-size="10" transform="matrix(0.997859 0 0 1 744.658 591)">_</text><text font-family="Arial,Arial_MSFontService,sans-serif" font-weight="400" font-size="10" transform="matrix(0.997859 0 0 1 750.207 591)">light</text><text fill="#FF0000" font-family="Arial,Arial_MSFontService,sans-serif" font-weight="400" font-size="10" transform="matrix(0.997859 0 0 1 710.824 605)">*</text><text font-family="Arial,Arial_MSFontService,sans-serif" font-weight="400" font-size="10" transform="matrix(0.997859 0 0 1 720.803 605)">end</text><text font-family="Arial,Arial_MSFontService,sans-serif" font-weight="400" font-size="10" transform="matrix(0.997859 0 0 1 737.452 605)">_</text><text font-family="Arial,Arial_MSFontService,sans-serif" font-weight="400" font-size="10" transform="matrix(0.997859 0 0 1 743.001 605)">device</text><text font-family="Arial,Arial_MSFontService,sans-serif" font-weight="400" font-size="10" transform="matrix(0.997859 0 0 1 771.846 605)">_</text><text font-family="Arial,Arial_MSFontService,sans-serif" font-weight="400" font-size="10" transform="matrix(0.997859 0 0 1 777.395 605)">state</text><text fill="#FF0000" font-family="Arial,Arial_MSFontService,sans-serif" font-weight="400" font-size="10" transform="matrix(0.997859 0 0 1 710.824 619)">*</text><text font-family="Arial,Arial_MSFontService,sans-serif" font-weight="400" font-size="10" transform="matrix(0.997859 0 0 1 720.803 619)">x</text><text fill="#FF0000" font-family="Arial,Arial_MSFontService,sans-serif" font-weight="400" font-size="10" transform="matrix(0.997859 0 0 1 710.824 633)">*</text><text font-family="Arial,Arial_MSFontService,sans-serif" font-weight="400" font-size="10" transform="matrix(0.997859 0 0 1 720.803 633)">y</text></g><g><path d="M147.683 0C158.705-7.09022e-15 167.64 8.93514 167.64 19.9572L167.64 76.8352C167.64 87.8572 158.705 96.7924 147.683 96.7924L19.9572 96.7924C8.93514 96.7924 0 87.8572 0 76.8352L0 19.9572C-3.54511e-15 8.93514 8.93514-3.54511e-15 19.9572-7.09022e-15Z" stroke="#0000FF" stroke-width="0.997859" fill="#A4E1FF" transform="matrix(1 0 0 1.00215 926.362 80)"/><text fill="#0000FF" font-family="Arial,Arial_MSFontService,sans-serif" font-weight="700" font-size="10" transform="matrix(0.997859 0 0 1 996.212 94)">Users</text><text fill="#FF0000" font-family="Arial,Arial_MSFontService,sans-serif" font-weight="400" font-size="10" transform="matrix(0.997859 0 0 1 942.328 112)">*</text><text fill="#0000FF" font-family="Arial,Arial_MSFontService,sans-serif" font-weight="400" font-size="10" transform="matrix(0.997859 0 0 1 928.357 112)">P</text><text font-family="Arial,Arial_MSFontService,sans-serif" font-weight="400" font-size="10" transform="matrix(0.997859 0 0 1 952.306 112)">id</text><text font-family="Arial,Arial_MSFontService,sans-serif" font-weight="400" font-size="10" transform="matrix(0.997859 0 0 1 960.073 112)">_</text><text font-family="Arial,Arial_MSFontService,sans-serif" font-weight="400" font-size="10" transform="matrix(0.997859 0 0 1 965.622 112)">user</text><text fill="#FF0000" font-family="Arial,Arial_MSFontService,sans-serif" font-weight="400" font-size="10" transform="matrix(0.997859 0 0 1 942.328 126)">*</text><text font-family="Arial,Arial_MSFontService,sans-serif" font-weight="400" font-size="10" transform="matrix(0.997859 0 0 1 952.306 126)">name</text><text fill="#FF0000" font-family="Arial,Arial_MSFontService,sans-serif" font-weight="400" font-size="10" transform="matrix(0.997859 0 0 1 942.328 140)">*</text><text font-family="Arial,Arial_MSFontService,sans-serif" font-weight="400" font-size="10" transform="matrix(0.997859 0 0 1 952.306 140)">last</text><text font-family="Arial,Arial_MSFontService,sans-serif" font-weight="400" font-size="10" transform="matrix(0.997859 0 0 1 967.834 140)">_</text><text font-family="Arial,Arial_MSFontService,sans-serif" font-weight="400" font-size="10" transform="matrix(0.997859 0 0 1 973.384 140)">name</text><text fill="#FF0000" font-family="Arial,Arial_MSFontService,sans-serif" font-weight="400" font-size="10" transform="matrix(0.997859 0 0 1 942.328 154)">*</text><text fill="#0000FF" font-family="Arial,Arial_MSFontService,sans-serif" font-weight="400" font-size="10" transform="matrix(0.997859 0 0 1 928.357 154)">U</text><text font-family="Arial,Arial_MSFontService,sans-serif" font-weight="400" font-size="10" transform="matrix(0.997859 0 0 1 952.306 154)">email</text><text fill="#FF0000" font-family="Arial,Arial_MSFontService,sans-serif" font-weight="400" font-size="10" transform="matrix(0.997859 0 0 1 942.328 168)">*</text><text font-family="Arial,Arial_MSFontService,sans-serif" font-weight="400" font-size="10" transform="matrix(0.997859 0 0 1 952.306 168)">password</text><text font-family="Arial,Arial_MSFontService,sans-serif" font-weight="400" font-size="10" transform="matrix(0.997859 0 0 1 995.012 168)">_</text><text font-family="Arial,Arial_MSFontService,sans-serif" font-weight="400" font-size="10" transform="matrix(0.997859 0 0 1 1000.56 168)">hash</text></g><g><path d="M149.679 0C160.701-7.09022e-15 169.636 8.93514 169.636 19.9572L169.636 70.848C169.636 81.8701 160.701 90.8052 149.679 90.8052L19.9572 90.8052C8.93514 90.8052 0 81.8701 0 70.848L0 19.9572C-3.54511e-15 8.93514 8.93514-3.54511e-15 19.9572-7.09022e-15Z" stroke="#0000FF" stroke-width="0.997859" fill="#A4E1FF" transform="matrix(1 0 0 1.00215 922.37 247)"/><text fill="#0000FF" font-family="Arial,Arial_MSFontService,sans-serif" font-weight="700" font-size="10" transform="matrix(0.997859 0 0 1 948.315 261)">Greenhouse</text><text fill="#0000FF" font-family="Arial,Arial_MSFontService,sans-serif" font-weight="700" font-size="10" transform="matrix(0.997859 0 0 1 1006.54 261)">_</text><text fill="#0000FF" font-family="Arial,Arial_MSFontService,sans-serif" font-weight="700" font-size="10" transform="matrix(0.997859 0 0 1 1012.09 261)">controllers</text><text fill="#FF0000" font-family="Arial,Arial_MSFontService,sans-serif" font-weight="400" font-size="10" transform="matrix(0.997859 0 0 1 938.336 279)">*</text><text fill="#0000FF" font-family="Arial,Arial_MSFontService,sans-serif" font-weight="400" font-size="10" transform="matrix(0.997859 0 0 1 924.366 279)">P</text><text font-family="Arial,Arial_MSFontService,sans-serif" font-weight="400" font-size="10" transform="matrix(0.997859 0 0 1 948.315 279)">id</text><text font-family="Arial,Arial_MSFontService,sans-serif" font-weight="400" font-size="10" transform="matrix(0.997859 0 0 1 956.081 279)">_</text><text font-family="Arial,Arial_MSFontService,sans-serif" font-weight="400" font-size="10" transform="matrix(0.997859 0 0 1 961.631 279)">greenhouse</text><text font-family="Arial,Arial_MSFontService,sans-serif" font-weight="400" font-size="10" transform="matrix(0.997859 0 0 1 1014.34 279)">_</text><text font-family="Arial,Arial_MSFontService,sans-serif" font-weight="400" font-size="10" transform="matrix(0.997859 0 0 1 1019.89 279)">controller</text><text fill="#FF0000" font-family="Arial,Arial_MSFontService,sans-serif" font-weight="400" font-size="10" transform="matrix(0.997859 0 0 1 938.336 293)">*</text><text font-family="Arial,Arial_MSFontService,sans-serif" font-weight="400" font-size="10" transform="matrix(0.997859 0 0 1 948.315 293)">device</text><text font-family="Arial,Arial_MSFontService,sans-serif" font-weight="400" font-size="10" transform="matrix(0.997859 0 0 1 977.159 293)">_</text><text font-family="Arial,Arial_MSFontService,sans-serif" font-weight="400" font-size="10" transform="matrix(0.997859 0 0 1 982.709 293)">id</text><text fill="#FF0000" font-family="Arial,Arial_MSFontService,sans-serif" font-weight="400" font-size="10" transform="matrix(0.997859 0 0 1 938.336 307)">o</text><text font-family="Arial,Arial_MSFontService,sans-serif" font-weight="400" font-size="10" transform="matrix(0.997859 0 0 1 948.315 307)">device</text><text font-family="Arial,Arial_MSFontService,sans-serif" font-weight="400" font-size="10" transform="matrix(0.997859 0 0 1 977.159 307)">_</text><text font-family="Arial,Arial_MSFontService,sans-serif" font-weight="400" font-size="10" transform="matrix(0.997859 0 0 1 982.709 307)">token</text><text fill="#FF0000" font-family="Arial,Arial_MSFontService,sans-serif" font-weight="400" font-size="10" transform="matrix(0.997859 0 0 1 938.336 321)">o</text><text font-family="Arial,Arial_MSFontService,sans-serif" font-weight="400" font-size="10" transform="matrix(0.997859 0 0 1 948.315 321)">is</text><text font-family="Arial,Arial_MSFontService,sans-serif" font-weight="400" font-size="10" transform="matrix(0.997859 0 0 1 955.521 321)">_</text><text font-family="Arial,Arial_MSFontService,sans-serif" font-weight="400" font-size="10" transform="matrix(0.997859 0 0 1 961.07 321)">active</text></g><g><path d="M128.724 0C139.746-7.09022e-15 148.681 8.93514 148.681 19.9572L148.681 71.8459C148.681 82.8679 139.746 91.8031 128.724 91.8031L19.9572 91.8031C8.93514 91.8031 0 82.8679 0 71.8459L0 19.9572C-3.54511e-15 8.93514 8.93514-3.54511e-15 19.9572-7.09022e-15Z" stroke="#0000FF" stroke-width="0.997859" fill="#A4E1FF" transform="matrix(1 0 0 1.00215 699.848 84)"/><text fill="#0000FF" font-family="Arial,Arial_MSFontService,sans-serif" font-weight="700" font-size="10" transform="matrix(0.997859 0 0 1 741.758 98)">Greenhouses</text><text fill="#FF0000" font-family="Arial,Arial_MSFontService,sans-serif" font-weight="400" font-size="10" transform="matrix(0.997859 0 0 1 715.813 116)">*</text><text fill="#0000FF" font-family="Arial,Arial_MSFontService,sans-serif" font-weight="400" font-size="10" transform="matrix(0.997859 0 0 1 701.843 116)">P</text><text font-family="Arial,Arial_MSFontService,sans-serif" font-weight="400" font-size="10" transform="matrix(0.997859 0 0 1 725.792 116)">id</text><text font-family="Arial,Arial_MSFontService,sans-serif" font-weight="400" font-size="10" transform="matrix(0.997859 0 0 1 733.559 116)">_</text><text font-family="Arial,Arial_MSFontService,sans-serif" font-weight="400" font-size="10" transform="matrix(0.997859 0 0 1 739.108 116)">greenhouse</text><text fill="#FF0000" font-family="Arial,Arial_MSFontService,sans-serif" font-weight="400" font-size="10" transform="matrix(0.997859 0 0 1 715.813 130)">*</text><text font-family="Arial,Arial_MSFontService,sans-serif" font-weight="400" font-size="10" transform="matrix(0.997859 0 0 1 725.792 130)">greenhouse</text><text font-family="Arial,Arial_MSFontService,sans-serif" font-weight="400" font-size="10" transform="matrix(0.997859 0 0 1 778.501 130)">_</text><text font-family="Arial,Arial_MSFontService,sans-serif" font-weight="400" font-size="10" transform="matrix(0.997859 0 0 1 784.051 130)">name</text><text fill="#FF0000" font-family="Arial,Arial_MSFontService,sans-serif" font-weight="400" font-size="10" transform="matrix(0.997859 0 0 1 715.813 144)">o</text><text font-family="Arial,Arial_MSFontService,sans-serif" font-weight="400" font-size="10" transform="matrix(0.997859 0 0 1 725.792 144)">description</text></g><g><path d="M157.662 0C168.684-7.09022e-15 177.619 8.93514 177.619 19.9572L177.619 67.8544C177.619 78.8765 168.684 87.8116 157.662 87.8116L19.9572 87.8116C8.93514 87.8116 0 78.8765 0 67.8544L0 19.9572C-3.54511e-15 8.93514 8.93514-3.54511e-15 19.9572-7.09022e-15Z" stroke="#0000FF" stroke-width="0.997859" fill="#A4E1FF" transform="matrix(1 0 0 1.00215 914.387 400)"/><text fill="#0000FF" font-family="Arial,Arial_MSFontService,sans-serif" font-weight="700" font-size="10" transform="matrix(0.997859 0 0 1 968.272 414)">Sensor</text><text fill="#0000FF" font-family="Arial,Arial_MSFontService,sans-serif" font-weight="700" font-size="10" transform="matrix(0.997859 0 0 1 1002.1 414)">_</text><text fill="#0000FF" font-family="Arial,Arial_MSFontService,sans-serif" font-weight="700" font-size="10" transform="matrix(0.997859 0 0 1 1007.65 414)">nodes</text><text fill="#FF0000" font-family="Arial,Arial_MSFontService,sans-serif" font-weight="400" font-size="10" transform="matrix(0.997859 0 0 1 930.353 432)">*</text><text fill="#0000FF" font-family="Arial,Arial_MSFontService,sans-serif" font-weight="400" font-size="10" transform="matrix(0.997859 0 0 1 916.383 432)">P</text><text font-family="Arial,Arial_MSFontService,sans-serif" font-weight="400" font-size="10" transform="matrix(0.997859 0 0 1 940.332 432)">id</text><text font-family="Arial,Arial_MSFontService,sans-serif" font-weight="400" font-size="10" transform="matrix(0.997859 0 0 1 948.098 432)">_</text><text font-family="Arial,Arial_MSFontService,sans-serif" font-weight="400" font-size="10" transform="matrix(0.997859 0 0 1 953.648 432)">sensor</text><text font-family="Arial,Arial_MSFontService,sans-serif" font-weight="400" font-size="10" transform="matrix(0.997859 0 0 1 983.598 432)">_</text><text font-family="Arial,Arial_MSFontService,sans-serif" font-weight="400" font-size="10" transform="matrix(0.997859 0 0 1 989.148 432)">node</text><text fill="#FF0000" font-family="Arial,Arial_MSFontService,sans-serif" font-weight="400" font-size="10" transform="matrix(0.997859 0 0 1 930.353 446)">*</text><text font-family="Arial,Arial_MSFontService,sans-serif" font-weight="400" font-size="10" transform="matrix(0.997859 0 0 1 940.332 446)">sensor</text><text font-family="Arial,Arial_MSFontService,sans-serif" font-weight="400" font-size="10" transform="matrix(0.997859 0 0 1 970.282 446)">_</text><text font-family="Arial,Arial_MSFontService,sans-serif" font-weight="400" font-size="10" transform="matrix(0.997859 0 0 1 975.832 446)">node</text><text font-family="Arial,Arial_MSFontService,sans-serif" font-weight="400" font-size="10" transform="matrix(0.997859 0 0 1 998.03 446)">_</text><text font-family="Arial,Arial_MSFontService,sans-serif" font-weight="400" font-size="10" transform="matrix(0.997859 0 0 1 1003.58 446)">name</text><text fill="#FF0000" font-family="Arial,Arial_MSFontService,sans-serif" font-weight="400" font-size="10" transform="matrix(0.997859 0 0 1 930.353 460)">*</text><text font-family="Arial,Arial_MSFontService,sans-serif" font-weight="400" font-size="10" transform="matrix(0.997859 0 0 1 940.332 460)">x</text><text fill="#FF0000" font-family="Arial,Arial_MSFontService,sans-serif" font-weight="400" font-size="10" transform="matrix(0.997859 0 0 1 930.353 474)">*</text><text font-family="Arial,Arial_MSFontService,sans-serif" font-weight="400" font-size="10" transform="matrix(0.997859 0 0 1 940.332 474)">y</text></g><g><path d="M95.7945 0C106.817-7.09022e-15 115.752 8.93514 115.752 19.9572L115.752 89.8073C115.752 100.829 106.817 109.765 95.7945 109.765L19.9572 109.765C8.93514 109.765 0 100.829 0 89.8073L0 19.9572C-3.54511e-15 8.93514 8.93514-3.54511e-15 19.9572-7.09022e-15Z" stroke="#0000FF" stroke-width="0.997859" fill="#A4E1FF" transform="matrix(1 0 0 1.00215 699.848 270)"/><text fill="#0000FF" font-family="Arial,Arial_MSFontService,sans-serif" font-weight="700" font-size="10" transform="matrix(0.997859 0 0 1 742.756 284)">Zones</text><text fill="#FF0000" font-family="Arial,Arial_MSFontService,sans-serif" font-weight="400" font-size="10" transform="matrix(0.997859 0 0 1 715.813 302)">*</text><text fill="#0000FF" font-family="Arial,Arial_MSFontService,sans-serif" font-weight="400" font-size="10" transform="matrix(0.997859 0 0 1 701.843 302)">P</text><text font-family="Arial,Arial_MSFontService,sans-serif" font-weight="400" font-size="10" transform="matrix(0.997859 0 0 1 725.792 302)">id</text><text font-family="Arial,Arial_MSFontService,sans-serif" font-weight="400" font-size="10" transform="matrix(0.997859 0 0 1 733.559 302)">_</text><text font-family="Arial,Arial_MSFontService,sans-serif" font-weight="400" font-size="10" transform="matrix(0.997859 0 0 1 739.108 302)">zone</text><text fill="#FF0000" font-family="Arial,Arial_MSFontService,sans-serif" font-weight="400" font-size="10" transform="matrix(0.997859 0 0 1 715.813 316)">o</text><text font-family="Arial,Arial_MSFontService,sans-serif" font-weight="400" font-size="10" transform="matrix(0.997859 0 0 1 725.792 316)">zone</text><text font-family="Arial,Arial_MSFontService,sans-serif" font-weight="400" font-size="10" transform="matrix(0.997859 0 0 1 747.43 316)">_</text><text font-family="Arial,Arial_MSFontService,sans-serif" font-weight="400" font-size="10" transform="matrix(0.997859 0 0 1 752.98 316)">name</text><text fill="#FF0000" font-family="Arial,Arial_MSFontService,sans-serif" font-weight="400" font-size="10" transform="matrix(0.997859 0 0 1 715.813 330)">*</text><text font-family="Arial,Arial_MSFontService,sans-serif" font-weight="400" font-size="10" transform="matrix(0.997859 0 0 1 725.792 330)">x</text><text fill="#FF0000" font-family="Arial,Arial_MSFontService,sans-serif" font-weight="400" font-size="10" transform="matrix(0.997859 0 0 1 715.813 344)">*</text><text font-family="Arial,Arial_MSFontService,sans-serif" font-weight="400" font-size="10" transform="matrix(0.997859 0 0 1 725.792 344)">y</text><text fill="#FF0000" font-family="Arial,Arial_MSFontService,sans-serif" font-weight="400" font-size="10" transform="matrix(0.997859 0 0 1 715.813 358)">*</text><text font-family="Arial,Arial_MSFontService,sans-serif" font-weight="400" font-size="10" transform="matrix(0.997859 0 0 1 725.792 358)">height</text><text fill="#FF0000" font-family="Arial,Arial_MSFontService,sans-serif" font-weight="400" font-size="10" transform="matrix(0.997859 0 0 1 715.813 372)">*</text><text font-family="Arial,Arial_MSFontService,sans-serif" font-weight="400" font-size="10" transform="matrix(0.997859 0 0 1 725.792 372)">width</text></g><g><path d="M157.662 0C168.684-7.09022e-15 177.619 8.93514 177.619 19.9572L177.619 83.8202C177.619 94.8422 168.684 103.777 157.662 103.777L19.9572 103.777C8.93514 103.777 0 94.8422 0 83.8202L0 19.9572C-3.54511e-15 8.93514 8.93514-3.54511e-15 19.9572-7.09022e-15Z" stroke="#0000FF" stroke-width="0.997859" fill="#A4E1FF" transform="matrix(1 0 0 1.00215 914.387 535)"/><text fill="#0000FF" font-family="Arial,Arial_MSFontService,sans-serif" font-weight="700" font-size="10" transform="matrix(0.997859 0 0 1 983.24 549)">Htl</text><text fill="#0000FF" font-family="Arial,Arial_MSFontService,sans-serif" font-weight="700" font-size="10" transform="matrix(0.997859 0 0 1 996.541 549)">_</text><text fill="#0000FF" font-family="Arial,Arial_MSFontService,sans-serif" font-weight="700" font-size="10" transform="matrix(0.997859 0 0 1 1002.09 549)">logs</text><text fill="#FF0000" font-family="Arial,Arial_MSFontService,sans-serif" font-weight="400" font-size="10" transform="matrix(0.997859 0 0 1 930.353 567)">*</text><text fill="#0000FF" font-family="Arial,Arial_MSFontService,sans-serif" font-weight="400" font-size="10" transform="matrix(0.997859 0 0 1 916.383 567)">P</text><text font-family="Arial,Arial_MSFontService,sans-serif" font-weight="400" font-size="10" transform="matrix(0.997859 0 0 1 940.332 567)">id</text><text font-family="Arial,Arial_MSFontService,sans-serif" font-weight="400" font-size="10" transform="matrix(0.997859 0 0 1 948.098 567)">_</text><text font-family="Arial,Arial_MSFontService,sans-serif" font-weight="400" font-size="10" transform="matrix(0.997859 0 0 1 953.648 567)">htl</text><text font-family="Arial,Arial_MSFontService,sans-serif" font-weight="400" font-size="10" transform="matrix(0.997859 0 0 1 964.187 567)">_</text><text font-family="Arial,Arial_MSFontService,sans-serif" font-weight="400" font-size="10" transform="matrix(0.997859 0 0 1 969.737 567)">log</text><text fill="#FF0000" font-family="Arial,Arial_MSFontService,sans-serif" font-weight="400" font-size="10" transform="matrix(0.997859 0 0 1 930.353 581)">*</text><text font-family="Arial,Arial_MSFontService,sans-serif" font-weight="400" font-size="10" transform="matrix(0.997859 0 0 1 940.332 581)">log</text><text font-family="Arial,Arial_MSFontService,sans-serif" font-weight="400" font-size="10" transform="matrix(0.997859 0 0 1 953.648 581)">_</text><text font-family="Arial,Arial_MSFontService,sans-serif" font-weight="400" font-size="10" transform="matrix(0.997859 0 0 1 959.198 581)">time</text><text fill="#FF0000" font-family="Arial,Arial_MSFontService,sans-serif" font-weight="400" font-size="10" transform="matrix(0.997859 0 0 1 930.353 595)">o</text><text font-family="Arial,Arial_MSFontService,sans-serif" font-weight="400" font-size="10" transform="matrix(0.997859 0 0 1 940.332 595)">temperature</text><text fill="#FF0000" font-family="Arial,Arial_MSFontService,sans-serif" font-weight="400" font-size="10" transform="matrix(0.997859 0 0 1 930.353 609)">o</text><text font-family="Arial,Arial_MSFontService,sans-serif" font-weight="400" font-size="10" transform="matrix(0.997859 0 0 1 940.332 609)">Humidity</text><text fill="#FF0000" font-family="Arial,Arial_MSFontService,sans-serif" font-weight="400" font-size="10" transform="matrix(0.997859 0 0 1 930.353 623)">o</text><text font-family="Arial,Arial_MSFontService,sans-serif" font-weight="400" font-size="10" transform="matrix(0.997859 0 0 1 940.332 623)">Light</text></g></g></svg>