<svg width="2655" height="1439" xmlns="http://www.w3.org/2000/svg" xmlns:xlink="http://www.w3.org/1999/xlink" xml:space="preserve" overflow="hidden"><g transform="translate(-1215 -455)"><rect x="1218.5" y="459.5" width="606" height="200" stroke="#042433" stroke-width="6.875" stroke-miterlimit="8" fill="none"/><text font-family="Aptos,Aptos_MSFontService,sans-serif" font-weight="400" font-size="64" transform="matrix(1 0 0 1 1305.04 580)">Bateria </text><text font-family="Aptos,Aptos_MSFontService,sans-serif" font-weight="400" font-size="64" transform="matrix(1 0 0 1 1516.12 580)">CR2032</text><rect x="2084.5" y="461.5" width="607" height="201" stroke="#042433" stroke-width="6.875" stroke-miterlimit="8" fill="none"/><text font-family="Aptos,Aptos_MSFontService,sans-serif" font-weight="400" font-size="64" transform="matrix(1 0 0 1 2249.29 582)">TPS61</text><text font-family="Aptos,Aptos_MSFontService,sans-serif" font-weight="400" font-size="64" transform="matrix(1 0 0 1 2422.32 582)">220</text><rect x="2925.5" y="461.5" width="606" height="201" stroke="#042433" stroke-width="6.875" stroke-miterlimit="8" fill="none"/><text font-family="Aptos,Aptos_MSFontService,sans-serif" font-weight="400" font-size="64" transform="matrix(1 0 0 1 3109.2 582)">TPL5110</text><rect x="2925.5" y="871.5" width="606" height="201" stroke="#042433" stroke-width="6.875" stroke-miterlimit="8" fill="none"/><text font-family="Aptos,Aptos_MSFontService,sans-serif" font-weight="400" font-size="64" transform="matrix(1 0 0 1 3090.01 992)">TPS22919</text><rect x="3260.5" y="1689.5" width="606" height="201" stroke="#042433" stroke-width="6.875" stroke-miterlimit="8" fill="none"/><text font-family="Aptos,Aptos_MSFontService,sans-serif" font-weight="400" font-size="64" transform="matrix(1 0 0 1 3427.35 1810)">HDC3022</text><rect x="2925.5" y="1280.5" width="606" height="201" stroke="#042433" stroke-width="6.875" stroke-miterlimit="8" fill="none"/><text font-family="Aptos,Aptos_MSFontService,sans-serif" font-weight="400" font-size="64" transform="matrix(1 0 0 1 3114.8 1401)">CC1310</text><rect x="2598.5" y="1689.5" width="607" height="201" stroke="#042433" stroke-width="6.875" stroke-miterlimit="8" fill="none"/><text font-family="Aptos,Aptos_MSFontService,sans-serif" font-weight="400" font-size="64" transform="matrix(1 0 0 1 2775.73 1810)">OPT300</text><text font-family="Aptos,Aptos_MSFontService,sans-serif" font-weight="400" font-size="64" transform="matrix(1 0 0 1 2992.95 1810)">4</text><path d="M3228.5 1072.5 3228.5 1280.67" stroke="#C00000" stroke-width="6.875" stroke-miterlimit="8" stroke-dasharray="55 20.625" fill="none" fill-rule="evenodd"/><path d="M0 0 234.291 0.000360892" stroke="#C00000" stroke-width="6.875" stroke-miterlimit="8" fill="none" fill-rule="evenodd" transform="matrix(-1 0 0 1 2925.79 562.5)"/><path d="M3.43754 22.9166 3.43782 185.254-3.43718 185.254-3.43746 22.9166ZM-13.75 27.5 0 0 13.75 27.5ZM13.7503 180.67 0.000360892 208.17-13.7497 180.67Z" fill="#156082" transform="matrix(1 0 0 -1 3439.5 1689.67)"/><path d="M3.43754 22.9166 3.43782 185.254-3.43718 185.254-3.43746 22.9166ZM-13.75 27.5 0 0 13.75 27.5ZM13.7503 180.67 0.000360892 208.17-13.7497 180.67Z" fill="#156082" transform="matrix(1 0 0 -1 3008.5 1689.67)"/><text font-family="Aptos,Aptos_MSFontService,sans-serif" font-weight="400" font-size="64" transform="matrix(1 0 0 1 3471.81 1609)">I2C</text><text font-family="Aptos,Aptos_MSFontService,sans-serif" font-weight="400" font-size="64" transform="matrix(1 0 0 1 2890.71 1605)">I2C</text><text font-family="Aptos,Aptos_MSFontService,sans-serif" font-weight="400" font-size="64" transform="matrix(1 0 0 1 1922.3 534)">3V</text><path d="M3228.5 1217.5 3637.23 1217.5" stroke="#C00000" stroke-width="6.875" stroke-miterlimit="8" stroke-dasharray="55 20.625" fill="none" fill-rule="evenodd"/><path d="M3637.5 1217.5 3637.5 1689.53" stroke="#C00000" stroke-width="6.875" stroke-miterlimit="8" stroke-dasharray="55 20.625" fill="none" fill-rule="evenodd"/><path d="M0 0 417.844 0.000360892" stroke="#C00000" stroke-width="6.875" stroke-miterlimit="8" stroke-dasharray="55 20.625" fill="none" fill-rule="evenodd" transform="matrix(-1 0 0 1 3228.34 1217.5)"/><path d="M2807.5 1217.5 2807.5 1689.53" stroke="#C00000" stroke-width="6.875" stroke-miterlimit="8" stroke-dasharray="55 20.625" fill="none" fill-rule="evenodd"/><path d="M2807.5 562.5 2807.5 972.792" stroke="#C00000" stroke-width="6.875" stroke-miterlimit="8" fill="none" fill-rule="evenodd"/><path d="M2810.5 972.5 2925.13 972.5" stroke="#C00000" stroke-width="6.875" stroke-miterlimit="8" fill="none" fill-rule="evenodd"/><text font-family="Aptos,Aptos_MSFontService,sans-serif" font-weight="400" font-size="64" transform="matrix(1 0 0 1 2750.33 537)">3.3V</text><path d="M3231.94 662.5 3231.94 849.098 3225.06 849.098 3225.06 662.5ZM3242.25 844.515 3228.5 872.015 3214.75 844.515Z" fill="#156082"/><path d="M1827.5 561.5 2082.33 561.5" stroke="#C00000" stroke-width="6.875" stroke-miterlimit="8" fill="none" fill-rule="evenodd"/></g></svg>