<svg width="2390" height="1997" xmlns="http://www.w3.org/2000/svg" xmlns:xlink="http://www.w3.org/1999/xlink" xml:space="preserve" overflow="hidden"><g transform="translate(-1237 -373)"><rect x="1632.5" y="1160.5" width="859" height="421" stroke="#000000" stroke-width="6.875" stroke-miterlimit="8" fill="#FFFFFF"/><text font-family="Aptos,Aptos_MSFontService,sans-serif" font-weight="400" font-size="83" transform="matrix(1 0 0 1 1760.69 1397)">Główny kontroler</text><rect x="2099.5" y="1945.5" width="784" height="421" stroke="#000000" stroke-width="6.875" stroke-miterlimit="8" fill="#FFFFFF"/><text font-family="Aptos,Aptos_MSFontService,sans-serif" font-weight="400" font-size="83" transform="matrix(1 0 0 1 2211.8 2132)">Moduł akwizycji </text><text font-family="Aptos,Aptos_MSFontService,sans-serif" font-weight="400" font-size="83" transform="matrix(1 0 0 1 2360.66 2231)">danych</text><rect x="1240.5" y="1945.5" width="784" height="421" stroke="#000000" stroke-width="6.875" stroke-miterlimit="8" fill="#FFFFFF"/><text font-family="Aptos,Aptos_MSFontService,sans-serif" font-weight="400" font-size="83" transform="matrix(1 0 0 1 1348.35 2132)">Moduł sterujący </text><text font-family="Aptos,Aptos_MSFontService,sans-serif" font-weight="400" font-size="83" transform="matrix(1 0 0 1 1377.69 2231)">przekaźnikiem</text><rect x="1632.5" y="376.5" width="859" height="421" stroke="#000000" stroke-width="6.875" stroke-miterlimit="8" fill="#FFFFFF"/><text font-family="Aptos,Aptos_MSFontService,sans-serif" font-weight="400" font-size="83" transform="matrix(1 0 0 1 1937.36 613)">Serwer</text><rect x="2839.5" y="376.5" width="784" height="421" stroke="#000000" stroke-width="6.875" stroke-miterlimit="8" fill="#FFFFFF"/><text font-family="Aptos,Aptos_MSFontService,sans-serif" font-weight="400" font-size="83" transform="matrix(1 0 0 1 2913.3 613)">Aplikacja mobilna</text><path d="M1784.87 1581 1784.88 1909.67 1771.13 1909.67 1771.12 1581ZM1798.63 1902.79 1778 1944.04 1757.38 1902.79Z" fill="#171717"/><path d="M6.875-6.83427e-06 6.87533 328.668-6.87467 328.668-6.875 6.83427e-06ZM20.6253 321.793 0.000360892 363.043-20.6247 321.793Z" fill="#171717" transform="matrix(1 0 0 -1 2340 1944.04)"/><path d="M6.875-6.83427e-06 6.87533 328.668-6.87467 328.668-6.875 6.83427e-06ZM20.6253 321.793 0.000360892 363.043-20.6247 321.793Z" fill="#171717" transform="matrix(1 0 0 -1 2033 1162.04)"/><path d="M2105.88 799 2105.88 1125.45 2092.13 1125.45 2092.12 799ZM2119.63 1118.58 2099 1159.83 2078.38 1118.58Z" fill="#171717"/><path d="M7.06292e-06-6.875 316.915-6.87467 316.915 6.87533-7.06292e-06 6.875ZM310.04-20.6247 351.29 0.000360892 310.04 20.6253Z" fill="#171717" transform="matrix(-1 0 0 1 2838.29 544)"/><path d="M2491 606.125 2804.37 606.125 2804.37 619.875 2491 619.875ZM2797.49 592.375 2838.74 613 2797.49 633.625Z" fill="#171717"/></g></svg>